Coordinates
version=1
nRows=27
nColumns=34
inDegrees=no

Units are S.I. units (second, meters, Newtons, ...)
If the header above contains a line with 'inDegrees', this indicates whether rotational values are in degrees (yes) or radians (no).

endheader
time	pelvis_tilt	pelvis_list	pelvis_rotation	pelvis_tx	pelvis_ty	pelvis_tz	hip_flexion_r	hip_adduction_r	hip_rotation_r	knee_angle_r	ankle_angle_r	subtalar_angle_r	mtp_angle_r	hip_flexion_l	hip_adduction_l	hip_rotation_l	knee_angle_l	ankle_angle_l	subtalar_angle_l	mtp_angle_l	lumbar_extension	lumbar_bending	lumbar_rotation	arm_flex_r	arm_add_r	arm_rot_r	elbow_flex_r	pro_sup_r	arm_flex_l	arm_add_l	arm_rot_l	elbow_flex_l	pro_sup_l
0	-0.0504334	0.0334479	0.00549423	-0.134366	0.875013	-0.273665	0.466497	0.019822	-0.14262	0.0171229	0.150536	0.0267633	-0.00371173	-0.215748	0.0554293	-0.367967	0.18349	0.539441	0.591624	-0.0295062	-0.0887434	-0.011354	-0.158702	-0.248707	-0.130148	-0.314675	0.293752	1.64971	0.14435	-0.275927	-0.250832	0.933646	1.87333
0.01	-0.0463342	0.0176775	0.00680811	-0.117833	0.881839	-0.272974	0.455639	0.0381425	-0.145251	0.0260054	0.116971	-0.00809532	-0.00373551	-0.237984	0.0334835	-0.37681	0.189103	0.546214	0.604508	-0.0294672	-0.0892986	0.00766491	-0.158158	-0.252452	-0.134447	-0.315448	0.288943	1.64874	0.139149	-0.272926	-0.247625	0.946596	1.8731
0.02	-0.0426944	0.00136734	0.00778164	-0.101414	0.887856	-0.272225	0.446133	0.0567904	-0.147704	0.0373201	0.0840453	-0.0418959	-0.00375929	-0.256891	0.0102335	-0.383312	0.199644	0.547542	0.6125	-0.0294282	-0.0892273	0.0271782	-0.157185	-0.255398	-0.138417	-0.317046	0.285187	1.64746	0.132978	-0.269213	-0.244754	0.957482	1.87308
0.03	-0.039522	-0.0154641	0.00841141	-0.0851248	0.893131	-0.271412	0.437971	0.0757428	-0.149927	0.0510513	0.0518969	-0.0746657	-0.00378307	-0.272401	-0.0142919	-0.387411	0.215197	0.543364	0.615481	-0.0293892	-0.0885324	0.0471559	-0.155781	-0.257532	-0.142051	-0.319469	0.28249	1.64586	0.125847	-0.264788	-0.242221	0.966287	1.87328
0.04	-0.0368413	-0.0327296	0.00869173	-0.0689842	0.897734	-0.270532	0.431138	0.0949197	-0.151776	0.0671658	0.0209598	-0.106476	-0.00380686	-0.28431	-0.0399795	-0.388913	0.235982	0.533505	0.613117	-0.0293502	-0.0872221	0.0674963	-0.153941	-0.258821	-0.145331	-0.322703	0.280859	1.64397	0.117793	-0.259653	-0.240035	0.972965	1.87373
0.05	-0.0347011	-0.0502371	0.00861584	-0.0530218	0.901738	-0.269584	0.425615	0.114146	-0.153021	0.0856041	-0.00796548	-0.137413	-0.00383064	-0.292259	-0.0665713	-0.387458	0.262348	0.517643	0.604854	-0.0293111	-0.0853034	0.0879809	-0.151662	-0.259211	-0.148223	-0.326702	0.280306	1.64187	0.108876	-0.253825	-0.238213	0.977447	1.87447
0.06	-0.0331836	-0.0676745	0.00818341	-0.0372734	0.905215	-0.268569	0.421379	0.133139	-0.153385	0.106238	-0.0337799	-0.167514	-0.00385443	-0.295736	-0.0936345	-0.38255	0.294702	0.495356	0.590059	-0.0292721	-0.0827666	0.108256	-0.148951	-0.258639	-0.15068	-0.331368	0.280844	1.63968	0.0991882	-0.247344	-0.236774	0.979654	1.87559
0.07	-0.0324078	-0.0846305	0.00741344	-0.0217767	0.908237	-0.267495	0.418388	0.15153	-0.152599	0.1288	-0.0552865	-0.196704	-0.00387822	-0.294125	-0.120582	-0.373656	0.333415	0.466233	0.568268	-0.029233	-0.0795671	0.127851	-0.145842	-0.257059	-0.152647	-0.336537	0.282488	1.6376	0.0888427	-0.240288	-0.235727	0.97951	1.87715
0.08	-0.0325203	-0.100646	0.00635932	-0.00656775	0.910861	-0.266372	0.416552	0.168911	-0.150473	0.1528	-0.0714509	-0.224757	-0.00390201	-0.28679	-0.146736	-0.360341	0.378705	0.430033	0.539485	-0.029194	-0.0756186	0.146234	-0.142402	-0.25446	-0.154067	-0.341978	0.285274	1.63582	0.0779735	-0.232771	-0.235051	0.976958	1.87921
0.09	-0.0336704	-0.115281	0.00512082	0.00832456	0.91314	-0.265213	0.415703	0.184897	-0.14698	0.177501	-0.0816158	-0.251241	-0.0039258	-0.27318	-0.171412	-0.342377	0.430518	0.386864	0.504381	-0.0291549	-0.0708051	0.162885	-0.138735	-0.250881	-0.154899	-0.347411	0.289269	1.63459	0.0667311	-0.224944	-0.234684	0.971963	1.88179
0.1	-0.0359713	-0.128179	0.00384931	0.0228813	0.915119	-0.264036	0.415572	0.199166	-0.142344	0.201954	-0.0856075	-0.275492	-0.00394959	-0.25295	-0.193996	-0.319806	0.48844	0.337358	0.464358	-0.0291158	-0.0650155	0.177371	-0.134975	-0.246419	-0.155121	-0.35252	0.294584	1.63411	0.0552827	-0.216984	-0.234505	0.964522	1.88486
0.11	-0.0394574	-0.139117	0.00274281	0.0370951	0.916837	-0.262857	0.41579	0.211487	-0.137078	0.225108	-0.0837153	-0.296634	-0.00397338	-0.226067	-0.214012	-0.29296	0.551653	0.282796	0.421472	-0.0290767	-0.0581926	0.189404	-0.131269	-0.241213	-0.154754	-0.356982	0.30138	1.63451	0.0438152	-0.209075	-0.234337	0.954653	1.88834
0.12	-0.0440495	-0.148029	0.00202858	0.0509683	0.918332	-0.261699	0.415901	0.221731	-0.131962	0.245959	-0.0765752	-0.313654	-0.00399717	-0.192865	-0.23115	-0.262429	0.618958	0.225152	0.378199	-0.0290376	-0.0503794	0.198879	-0.127758	-0.235435	-0.153862	-0.360476	0.309849	1.63587	0.0325346	-0.201397	-0.233954	0.942393	1.89206
0.13	-0.0495411	-0.154998	0.001934	0.0645126	0.919644	-0.260583	0.415405	0.229865	-0.127934	0.263698	-0.065016	-0.32553	-0.00402096	-0.154054	-0.245275	-0.229004	0.68885	0.167023	0.337086	-0.0289985	-0.0417495	0.205864	-0.12454	-0.229253	-0.152558	-0.362701	0.32019	1.63814	0.0216618	-0.194101	-0.233103	0.927793	1.89583
0.14	-0.0556103	-0.160226	0.00264979	0.0777459	0.920816	-0.259533	0.413801	0.235946	-0.12593	0.277819	-0.0499217	-0.331404	-0.00404475	-0.110664	-0.256404	-0.193607	0.759652	0.111427	0.300355	-0.0289594	-0.0326097	0.210579	-0.121655	-0.222815	-0.151004	-0.363373	0.332565	1.64121	0.0114181	-0.187302	-0.231535	0.910918	1.89947
0.15	-0.0618535	-0.163989	0.00429246	0.0906898	0.921893	-0.258565	0.410632	0.240118	-0.126695	0.288156	-0.0321428	-0.330746	-0.00406855	-0.0639422	-0.264676	-0.157234	0.829655	0.0614699	0.26952	-0.0289202	-0.023379	0.213346	-0.119057	-0.216219	-0.149396	-0.362235	0.34706	1.64487	0.00200529	-0.18107	-0.229045	0.891856	1.90278
0.16	-0.0678334	-0.166585	0.00687461	0.103371	0.922925	-0.25769	0.405516	0.2426	-0.130625	0.294848	-0.0124584	-0.323479	-0.00409234	-0.0152392	-0.270321	-0.120903	0.897254	0.0199353	0.245108	-0.0288811	-0.0145454	0.214532	-0.116613	-0.209506	-0.147952	-0.359069	0.363658	1.64886	-0.00641934	-0.175429	-0.225512	0.87073	1.90566
0.17	-0.0731377	-0.16829	0.0102896	0.115815	0.923954	-0.256913	0.398172	0.243684	-0.137669	0.298259	0.0084238	-0.310042	-0.00411613	0.0341228	-0.273627	-0.0856171	0.961048	-0.0111258	0.226532	-0.0288419	-0.00660474	0.214498	-0.11411	-0.202655	-0.146886	-0.353726	0.382228	1.65288	-0.0137675	-0.170361	-0.220931	0.847719	1.90803
0.18	-0.0774344	-0.169315	0.0143157	0.128048	0.925016	-0.256225	0.388442	0.243702	-0.147312	0.298875	0.029856	-0.291362	-0.00413992	0.0829641	-0.274905	-0.0523169	1.0199	-0.0307201	0.212158	-0.0288027	9.24175e-06	0.213548	-0.111273	-0.1956	-0.146384	-0.346163	0.402536	1.65663	-0.0200384	-0.165813	-0.215435	0.823069	1.90993
0.19	-0.0805155	-0.169785	0.0186392	0.140097	0.926134	-0.255606	0.3763	0.243001	-0.158663	0.297209	0.0512481	-0.268748	-0.00416371	0.130336	-0.274459	-0.0218365	1.07297	-0.0390631	0.199558	-0.0287635	0.0049865	0.211904	-0.107802	-0.188251	-0.146582	-0.336489	0.424276	1.65981	-0.025328	-0.161709	-0.209295	0.797102	1.91144
0.2	-0.0823164	-0.169733	0.0228936	0.151989	0.927321	-0.25503	0.361861	0.241893	-0.170603	0.293731	0.0720849	-0.243708	-0.00418749	0.175571	-0.272565	0.00514624	1.11968	-0.0375209	0.185919	-0.0287242	0.00818525	0.209687	-0.103409	-0.180515	-0.147547	-0.324987	0.447106	1.66221	-0.0298258	-0.157962	-0.202901	0.770213	1.9127
0.21	-0.082914	-0.169122	0.0267075	0.163747	0.928576	-0.254465	0.345373	0.240617	-0.181986	0.288843	0.0919574	-0.217737	-0.00421128	0.218289	-0.269452	0.0281526	1.15967	-0.0283536	0.168524	-0.028685	0.00964763	0.206921	-0.0978616	-0.172324	-0.149275	-0.312114	0.470689	1.66367	-0.033801	-0.154478	-0.196737	0.74285	1.91386
0.22	-0.0825108	-0.167874	0.0297528	0.175392	0.929882	-0.253878	0.327199	0.23931	-0.191826	0.282875	0.110596	-0.19212	-0.00423507	0.258368	-0.265295	0.0469312	1.19278	-0.014321	0.145211	-0.0286457	0.00958131	0.203558	-0.0910164	-0.16364	-0.151696	-0.298467	0.49472	1.66415	-0.0375786	-0.151168	-0.191334	0.715498	1.91507
0.23	-0.0814008	-0.165903	0.0317845	0.186943	0.931211	-0.253246	0.30778	0.237992	-0.199454	0.276109	0.127893	-0.16777	-0.00425886	0.29589	-0.260225	0.0614648	1.21898	0.00176203	0.114734	-0.0286064	0.00831785	0.199511	-0.0828467	-0.154458	-0.15469	-0.28471	0.518946	1.66371	-0.0415095	-0.147945	-0.187226	0.688636	1.91641
0.24	-0.0799212	-0.163142	0.0326643	0.198416	0.93253	-0.25255	0.287602	0.236586	-0.204596	0.268802	0.143896	-0.145159	-0.00428265	0.331069	-0.25434	0.071951	1.23836	0.0174299	0.0769385	-0.0285671	0.00625856	0.194693	-0.0734499	-0.144796	-0.158115	-0.271492	0.543167	1.66249	-0.0459378	-0.144732	-0.184908	0.662715	1.9179
0.25	-0.0783956	-0.159571	0.0323635	0.209824	0.9338	-0.251786	0.267153	0.234941	-0.207376	0.261205	0.158783	-0.124325	-0.00430644	0.364186	-0.247731	0.078759	1.25104	0.0308611	0.0327621	-0.0285277	0.00381922	0.189055	-0.0630384	-0.134675	-0.161823	-0.259355	0.567223	1.6607	-0.0511695	-0.141463	-0.184806	0.638115	1.91943
0.26	-0.077096	-0.155217	0.0309497	0.221177	0.934983	-0.250959	0.246881	0.232882	-0.20825	0.253572	0.172828	-0.104937	-0.00433023	0.395527	-0.240496	0.0823713	1.25718	0.0410237	-0.0159503	-0.0284883	0.00137554	0.18261	-0.051915	-0.124112	-0.165688	-0.248674	0.590981	1.65858	-0.0574444	-0.138078	-0.18724	0.615132	1.92082
